<svg width="160" height="66" viewBox="0 0 160 66" fill="none" xmlns="http://www.w3.org/2000/svg">
  <g clip-path="url(#clip0)">
  <path d="M61.1586 34.0509V42.119C62.3092 43.892 64.3015 45.0439 66.8717 45.0439C70.7231 45.0439 73.4265 42.1616 73.4265 38.1276C73.4265 34.1815 70.5926 31.302 66.7838 31.302C64.3015 31.3046 62.3545 32.3685 61.1586 34.0509ZM67.8013 49.2112C65.1431 49.2112 62.8419 48.414 61.0707 46.8169V48.7686H56.1113V16.4082H61.1586V29.8835C62.9298 27.9771 65.3642 27.0466 68.1981 27.0466C73.866 27.0466 78.4711 31.5686 78.4711 38.1276C78.4738 44.5133 73.6902 49.2112 67.8013 49.2112Z" fill="#0F216B"></path>
  <path d="M86.9117 16.4082H81.8644V48.7686H86.9117V16.4082Z" fill="#0F216B"></path>
  <path d="M95.4322 35.5595H105.971C105.351 32.9893 103.537 31.1282 100.746 31.1282C98.1782 31.1255 96.1406 32.7226 95.4322 35.5595ZM102.163 49.2108C95.2111 49.2108 90.2517 44.7341 90.2517 38.1298C90.2517 31.5681 95.2111 27.0488 100.746 27.0488C107.255 27.0488 110.976 31.7041 110.976 38.2205V39.2843H95.2564C95.7438 42.7878 98.2235 45.0461 102.52 45.0461C105.308 45.0461 108.496 43.9369 110.401 42.4305V46.7738C108.582 48.147 105.439 49.2108 102.163 49.2108Z" fill="#0F216B"></path>
  <path d="M119.643 33.8749V48.7686H114.596V27.4918H119.555V29.8408C121.06 28.1131 123.407 27.0039 126.243 27.0039C131.469 27.0039 134.391 30.5047 134.391 35.6026V48.7686H129.343V36.1785C129.343 33.4296 127.705 31.4352 124.871 31.4352C122.477 31.4352 120.751 32.4111 119.643 33.8749Z" fill="#0F216B"></path>
  <path d="M149.33 45.0012C151.81 45.0012 153.757 43.9374 154.953 42.2523V34.1842C153.802 32.4111 151.81 31.2593 149.24 31.2593C145.388 31.2593 142.685 34.1415 142.685 38.1302C142.687 42.119 145.521 45.0012 149.33 45.0012ZM155.041 46.3317C153.315 48.238 150.878 49.2139 148.089 49.2139C142.333 49.2139 137.637 44.7372 137.637 38.2209C137.637 31.7925 142.418 27.0493 148.31 27.0493C150.923 27.0493 153.227 27.8038 154.953 29.3982V16.4082H160V48.7686H155.041V46.3317Z" fill="#0F216B"></path>
  <path d="M25.3083 25.6308L27.5137 23.9724C32.22 20.5329 32.0229 16.3549 31.2106 13.8566C30.2917 11.025 27.6921 7.99879 23.1536 7.99879H0V0H23.1536C30.4195 0 36.5641 4.46866 38.8094 11.3876C41.0547 18.3066 38.7056 25.5348 32.8273 29.8115L31.943 30.4541L25.3083 25.6308ZM28.7096 32.803L32.8033 35.7759C38.6842 40.0499 41.0334 47.2808 38.7908 54.1998C36.5481 61.1187 30.4009 65.5901 23.1349 65.5901H0V57.5913H23.1322C27.6708 57.5913 30.2703 54.5651 31.1892 51.7308C32.1081 48.8966 31.7805 44.9185 28.1076 42.2496L21.9097 37.7463L15.1099 32.8057L7.99041 27.6331V37.9836L11.8338 35.192L18.6336 40.1326L6.34439 49.0699C5.12984 49.9524 3.52111 50.0804 2.18138 49.3979C0.841657 48.71 0 47.3342 0 45.8304V19.789C0 18.2852 0.841657 16.9094 2.18138 16.2269C3.51844 15.5443 5.12718 15.6696 6.34172 16.5522L21.9097 27.8624L28.7096 32.803Z" fill="#0F216B"></path>
  </g>
  <defs>
  <clipPath id="clip0">
  <rect width="160" height="65.5901" fill="white"></rect>
  </clipPath>
  </defs>
</svg>
